<svg xmlns="http://www.w3.org/2000/svg" viewBox="0 0 24 24" width="24" height="24">
  <!--
    oort 마크, 배경 없는 판 (#2650, C2-04 Bubble). 생성물: clients/web/scripts/
    brand-mark.mjs가 쓴다. 앱 밖에서 쓰는 사본이다: 문서, 배포 페이지, 링크
    미리보기처럼 이 클라이언트의 CSS가 닿지 않는 자리.
    icon-system-exception(ADR-0172): Lucide에 없는 oort 브랜드 마크의 정적 자산이라
    로컬 SVG로 남긴다. 제품 UI의 기능 아이콘으로 쓰지 않는다.

    앱 **안에서는 이 파일을 쓰지 않는다.** 셸과 로그인은
    src/design/brand/OortMark.tsx를 쓰고, 거기서는 색이 currentColor다.
    배경이 없으니 채움 색만 스킴을 따라간다. 값은 tokens.css의 accent 토큰 두
    스킴이다(라이트 #a54c08, 다크 #f0a850).
  -->
  <style>
    .mark { fill: #a54c08; }
    @media (prefers-color-scheme: dark) { .mark { fill: #f0a850; } }
  </style>
  <g class="mark" fill-rule="evenodd">
    <path d="M18.59 10.46A8 8 0 0 1 7.29 20.09A0.5 0.5 0 0 0 6.94 20.04L4.2 20.71A0.75 0.75 0 0 1 3.29 19.8L3.96 17.06A0.5 0.5 0 0 0 3.91 16.71A8 8 0 0 1 13.54 5.41A4.5 4.5 0 0 0 18.59 10.46ZM15 13A4 4 0 1 0 7 13A4 4 0 1 0 15 13Z"/>
    <path d="M21 6A3 3 0 1 1 15 6A3 3 0 1 1 21 6Z"/>
  </g>
</svg>
